<?xml version="1.0" encoding="UTF-8"?><svg xmlns="http://www.w3.org/2000/svg" width="1000" height="1000" viewBox="0 0 1000 1000"><g id="Background"><rect x="-65.28" y="-65.28" width="1130.56" height="1130.56" fill="#b39ddb"/></g><g id="Image"><path d="m205.19,328.76v265.16c0,66.32,131.99,120.09,294.82,120.09s294.82-53.77,294.82-120.09v-265.16H205.19Z" fill="#ef5350" stroke="#263238" stroke-miterlimit="10" stroke-width="20"/><line x1="257.21" y1="450.44" x2="257.21" y2="670.58" fill="none" stroke="#fff" stroke-linecap="round" stroke-linejoin="round" stroke-width="20"/><path d="m500,199.45c-175.32,0-317.44,57.89-317.44,129.31v52.34c0,71.41,142.12,129.31,317.44,129.31s317.44-57.89,317.44-129.31v-52.34c0-71.41-142.12-129.31-317.44-129.31Z" fill="#b0bec5" stroke="#263238" stroke-miterlimit="10" stroke-width="20"/><path d="m500,423.83c-80.47,0-155.6-12.55-211.55-35.34-43.53-17.73-71.65-41.17-71.65-59.72s28.13-41.99,71.65-59.72c55.95-22.79,131.08-35.34,211.55-35.34,80.47,0,155.6,12.55,211.55,35.34,43.53,17.73,71.65,41.17,71.65,59.72s-28.13,41.99-71.65,59.72c-55.95,22.79-131.08,35.34-211.55,35.34Z" fill="#fff" stroke="#263238" stroke-miterlimit="10" stroke-width="20"/><path d="m539.52,317.61c8.13,3.31,13.38,7.69,13.38,11.16s-5.25,7.84-13.38,11.16c-10.45,4.26-24.49,6.6-39.52,6.6-15.03,0-29.06-2.34-39.52-6.6" fill="none" stroke="#263238" stroke-linecap="round" stroke-linejoin="round" stroke-width="15"/><path d="m377.83,373.46c-15.03,0-29.06-2.34-39.52-6.6-8.13-3.31-13.38-7.69-13.38-11.16s5.25-7.84,13.38-11.16c10.45-4.26,24.49-6.6,39.52-6.6s29.06,2.34,39.52,6.6c8.13,3.31,13.38,7.69,13.38,11.16s-5.25,7.84-13.38,11.16c-10.45,4.26-24.49,6.6-39.52,6.6Z" fill="#263238"/><path d="m600.1,316.75c-15.03,0-29.06-2.34-39.52-6.6-8.13-3.31-13.38-7.69-13.38-11.16s5.25-7.84,13.38-11.16c10.45-4.26,24.49-6.6,39.52-6.6s29.06,2.34,39.52,6.6c8.13,3.31,13.38,7.69,13.38,11.16s-5.25,7.84-13.38,11.16c-10.45,4.26-24.49,6.6-39.52,6.6Z" fill="#263238"/><line x1="404.3" y1="502.75" x2="320.51" y2="689.21" fill="none" stroke="#263238" stroke-miterlimit="10" stroke-width="20"/><line x1="500" y1="715.7" x2="404.3" y2="502.75" fill="none" stroke="#263238" stroke-miterlimit="10" stroke-width="20"/><line x1="500" y1="715.7" x2="595.7" y2="502.75" fill="none" stroke="#263238" stroke-miterlimit="10" stroke-width="20"/><line x1="679.48" y1="689.21" x2="595.69" y2="502.75" fill="none" stroke="#263238" stroke-miterlimit="10" stroke-width="20"/><path d="m817.44,618.9v52.34c0,71.41-142.13,129.31-317.44,129.31s-317.45-57.9-317.45-129.31v-52.34c0-16.97,8.03-33.18,22.63-48.03v23.06c0,66.32,131.99,120.09,294.82,120.09s294.81-53.77,294.81-120.09v-23.06c14.6,14.85,22.63,31.06,22.63,48.03Z" fill="#b0bec5" stroke="#263238" stroke-linecap="round" stroke-linejoin="round" stroke-width="20"/></g></svg>